<mxfile host="Electron" agent="Mozilla/5.0 (X11; Linux x86_64) AppleWebKit/537.36 (KHTML, like Gecko) draw.io/26.0.4 Chrome/128.0.6613.186 Electron/32.2.5 Safari/537.36" version="26.0.4">
  <diagram name="Page-1" id="vC1aKDpkfvR0Y0MHf-IM">
    <mxGraphModel dx="1207" dy="1198" grid="1" gridSize="10" guides="1" tooltips="1" connect="1" arrows="1" fold="1" page="1" pageScale="1" pageWidth="850" pageHeight="1100" math="0" shadow="0">
      <root>
        <mxCell id="0" />
        <mxCell id="1" parent="0" />
        <mxCell id="OmRJ6CWjSWNvEbHrnKfJ-1" value="" style="sketch=0;outlineConnect=0;fontColor=#232F3E;gradientColor=none;fillColor=#7AA116;strokeColor=none;dashed=0;verticalLabelPosition=bottom;verticalAlign=top;align=center;html=1;fontSize=12;fontStyle=0;aspect=fixed;pointerEvents=1;shape=mxgraph.aws4.bucket_with_objects;" vertex="1" parent="1">
          <mxGeometry x="251.5" y="560" width="75" height="78" as="geometry" />
        </mxCell>
        <mxCell id="OmRJ6CWjSWNvEbHrnKfJ-6" value="$0.09" style="edgeStyle=orthogonalEdgeStyle;rounded=0;orthogonalLoop=1;jettySize=auto;html=1;" edge="1" parent="1" source="OmRJ6CWjSWNvEbHrnKfJ-2" target="OmRJ6CWjSWNvEbHrnKfJ-3">
          <mxGeometry relative="1" as="geometry" />
        </mxCell>
        <mxCell id="OmRJ6CWjSWNvEbHrnKfJ-11" style="edgeStyle=orthogonalEdgeStyle;rounded=0;orthogonalLoop=1;jettySize=auto;html=1;" edge="1" parent="1" source="OmRJ6CWjSWNvEbHrnKfJ-2" target="OmRJ6CWjSWNvEbHrnKfJ-5">
          <mxGeometry relative="1" as="geometry" />
        </mxCell>
        <mxCell id="OmRJ6CWjSWNvEbHrnKfJ-12" style="edgeStyle=orthogonalEdgeStyle;rounded=0;orthogonalLoop=1;jettySize=auto;html=1;" edge="1" parent="1" source="OmRJ6CWjSWNvEbHrnKfJ-2" target="OmRJ6CWjSWNvEbHrnKfJ-1">
          <mxGeometry relative="1" as="geometry" />
        </mxCell>
        <mxCell id="OmRJ6CWjSWNvEbHrnKfJ-2" value="" style="sketch=0;outlineConnect=0;fontColor=#232F3E;gradientColor=none;fillColor=#7AA116;strokeColor=none;dashed=0;verticalLabelPosition=bottom;verticalAlign=top;align=center;html=1;fontSize=12;fontStyle=0;aspect=fixed;pointerEvents=1;shape=mxgraph.aws4.bucket_with_objects;" vertex="1" parent="1">
          <mxGeometry x="251.5" y="370" width="75" height="78" as="geometry" />
        </mxCell>
        <mxCell id="OmRJ6CWjSWNvEbHrnKfJ-3" value="Internet" style="sketch=0;outlineConnect=0;fontColor=#232F3E;gradientColor=none;fillColor=#232F3D;strokeColor=none;dashed=0;verticalLabelPosition=top;verticalAlign=bottom;align=center;html=1;fontSize=12;fontStyle=0;aspect=fixed;pointerEvents=1;shape=mxgraph.aws4.internet_alt22;labelPosition=center;" vertex="1" parent="1">
          <mxGeometry x="250" y="180" width="78" height="78" as="geometry" />
        </mxCell>
        <mxCell id="OmRJ6CWjSWNvEbHrnKfJ-9" value="&amp;nbsp;$0.085&amp;nbsp;" style="edgeStyle=orthogonalEdgeStyle;rounded=0;orthogonalLoop=1;jettySize=auto;html=1;" edge="1" parent="1" source="OmRJ6CWjSWNvEbHrnKfJ-4" target="OmRJ6CWjSWNvEbHrnKfJ-8">
          <mxGeometry relative="1" as="geometry" />
        </mxCell>
        <mxCell id="OmRJ6CWjSWNvEbHrnKfJ-4" value="CloudFront" style="sketch=0;points=[[0,0,0],[0.25,0,0],[0.5,0,0],[0.75,0,0],[1,0,0],[0,1,0],[0.25,1,0],[0.5,1,0],[0.75,1,0],[1,1,0],[0,0.25,0],[0,0.5,0],[0,0.75,0],[1,0.25,0],[1,0.5,0],[1,0.75,0]];outlineConnect=0;fontColor=#232F3E;fillColor=#8C4FFF;strokeColor=#ffffff;dashed=0;verticalLabelPosition=bottom;verticalAlign=top;align=center;html=1;fontSize=12;fontStyle=0;aspect=fixed;shape=mxgraph.aws4.resourceIcon;resIcon=mxgraph.aws4.cloudfront;" vertex="1" parent="1">
          <mxGeometry x="490" y="560" width="78" height="78" as="geometry" />
        </mxCell>
        <mxCell id="OmRJ6CWjSWNvEbHrnKfJ-10" style="edgeStyle=orthogonalEdgeStyle;rounded=0;orthogonalLoop=1;jettySize=auto;html=1;" edge="1" parent="1" source="OmRJ6CWjSWNvEbHrnKfJ-5" target="OmRJ6CWjSWNvEbHrnKfJ-7">
          <mxGeometry relative="1" as="geometry" />
        </mxCell>
        <mxCell id="OmRJ6CWjSWNvEbHrnKfJ-5" value="Edge Location" style="sketch=0;outlineConnect=0;fontColor=#232F3E;gradientColor=none;fillColor=#8C4FFF;strokeColor=none;dashed=0;verticalLabelPosition=bottom;verticalAlign=top;align=center;html=1;fontSize=12;fontStyle=0;aspect=fixed;pointerEvents=1;shape=mxgraph.aws4.edge_location;" vertex="1" parent="1">
          <mxGeometry x="490" y="370" width="78" height="78" as="geometry" />
        </mxCell>
        <mxCell id="OmRJ6CWjSWNvEbHrnKfJ-7" value="Internet" style="sketch=0;outlineConnect=0;fontColor=#232F3E;gradientColor=none;fillColor=#232F3D;strokeColor=none;dashed=0;verticalLabelPosition=top;verticalAlign=bottom;align=center;html=1;fontSize=12;fontStyle=0;aspect=fixed;pointerEvents=1;shape=mxgraph.aws4.internet_alt22;labelPosition=center;" vertex="1" parent="1">
          <mxGeometry x="730" y="370" width="78" height="78" as="geometry" />
        </mxCell>
        <mxCell id="OmRJ6CWjSWNvEbHrnKfJ-8" value="Internet" style="sketch=0;outlineConnect=0;fontColor=#232F3E;gradientColor=none;fillColor=#232F3D;strokeColor=none;dashed=0;verticalLabelPosition=top;verticalAlign=bottom;align=center;html=1;fontSize=12;fontStyle=0;aspect=fixed;pointerEvents=1;shape=mxgraph.aws4.internet_alt22;labelPosition=center;" vertex="1" parent="1">
          <mxGeometry x="730" y="560" width="78" height="78" as="geometry" />
        </mxCell>
        <mxCell id="OmRJ6CWjSWNvEbHrnKfJ-13" value="$0.00" style="edgeStyle=orthogonalEdgeStyle;rounded=0;orthogonalLoop=1;jettySize=auto;html=1;entryX=0;entryY=0.5;entryDx=0;entryDy=0;entryPerimeter=0;" edge="1" parent="1" source="OmRJ6CWjSWNvEbHrnKfJ-2" target="OmRJ6CWjSWNvEbHrnKfJ-4">
          <mxGeometry relative="1" as="geometry">
            <Array as="points">
              <mxPoint x="408" y="420" />
              <mxPoint x="408" y="599" />
            </Array>
          </mxGeometry>
        </mxCell>
        <mxCell id="OmRJ6CWjSWNvEbHrnKfJ-14" value="Replication $0.02" style="sketch=0;outlineConnect=0;fontColor=#232F3E;gradientColor=none;fillColor=#7AA116;strokeColor=none;dashed=0;verticalLabelPosition=bottom;verticalAlign=top;align=center;html=1;fontSize=12;fontStyle=0;aspect=fixed;pointerEvents=1;shape=mxgraph.aws4.replication;" vertex="1" parent="1">
          <mxGeometry x="220" y="470" width="38.97" height="40" as="geometry" />
        </mxCell>
        <mxCell id="OmRJ6CWjSWNvEbHrnKfJ-15" value="Transfer Acceleration + $0.04" style="text;html=1;align=center;verticalAlign=middle;resizable=0;points=[];autosize=1;strokeColor=none;fillColor=none;" vertex="1" parent="1">
          <mxGeometry x="439" y="340" width="180" height="30" as="geometry" />
        </mxCell>
      </root>
    </mxGraphModel>
  </diagram>
</mxfile>
